[IMG]http://img9.imageshack.us/img9/8772/safehousep.jpg[/IMG]
[code]
Safe House 2012 TS V2 READNFO XviD AC3-26K

Imdb: 
http://www.imdb.com/title/tt1599348/

Plot:
A young CIA agent is tasked with looking after a fugitive in a safe house. But 

when the safe house is attacked, he finds himself on the run with his charge.

Sources:
Video: inferno
Audio: Littlenbird
Subs: Sic

Notes:
FULL LINE!!! THNXS TO SIC FOR THE SUBS :p :) SO ENJOY ADDED A FEW FILTERS TO THE 

VIDEO TO MAKE IT LOOK NICE :)

Greetz:
Xtreme 

Encode|FYA|ILLUMANTI|CM8|RX|VISION|HDSCENE|NIGHTMAREZ|xTriLL|DTRG|CRYS|REMIXHD|BID

A|RX|REFILL|INSPiRAL|SIC|ZOMBIESZ|HOPE|Anonymous|GooN
To all the people who have helped me :P you know who you are

Anything to offer email us @: 26k@hushmail.me

Video
ID                                       : 0
Format                                   : MPEG-4 Visual
Format profile                           : Advanced Simple@L5
Format settings, BVOP                    : 2
Format settings, QPel                    : No
Format settings, GMC                     : No warppoints
Format settings, Matrix                  : Default (H.263)
Codec ID                                 : XVID
Codec ID/Hint                            : XviD
Duration                                 : 1h 49mn
Bit rate                                 : 1 300 Kbps
Width                                    : 720 pixels
Height                                   : 252 pixels
Display aspect ratio                     : 2.857
Frame rate                               : 25.000 fps
Color space                              : YUV
Chroma subsampling                       : 4:2:0
Bit depth                                : 8 bits
Scan type                                : Progressive
Compression mode                         : Lossy
Bits/(Pixel*Frame)                       : 0.287
Stream size                              : 1 020 MiB (85%)
Writing library                          : XviD 64

Audio
ID                                       : 1
Format                                   : AC-3
Format/Info                              : Audio Coding 3
Mode extension                           : CM (complete main)
Codec ID                                 : 2000
Duration                                 : 1h 49mn
Source duration                          : 1h 49mn
Bit rate mode                            : Constant
Bit rate                                 : 224 Kbps
Channel(s)                               : 2 channels
Channel positions                        : Front: L R
Sampling rate                            : 44.1 KHz
Bit depth                                : 16 bits
Compression mode                         : Lossy
Stream size                              : 176 MiB (15%)
Alignment                                : Aligned on interleaves
Interleave, duration                     : 35 ms (0.87 video frame)

[/code]
Screens:
[IMG]http://i.imgur.com/seH7c.png[/IMG]
[IMG]http://i.imgur.com/xdGyy.png[/IMG]
[IMG]http://i.imgur.com/YNMps.png[/IMG]
[IMG]http://i.imgur.com/9gTWz.png[/IMG]
[IMG]http://img51.imageshack.us/img51/7941/vlcsnap2012021721h16m17.png[/IMG]
[IMG]http://img823.imageshack.us/img823/2624/vlcsnap2012021721h16m08.png[/IMG]
[IMG]http://img819.imageshack.us/img819/5549/vlcsnap2012021721h16m11.png[/IMG]
[IMG]http://img705.imageshack.us/img705/5161/vlcsnap2012021721h16m14.png[/IMG]

[img]http://img851.imageshack.us/img851/5503/26ks.jpg[/img]
Thank you smallz for banner!